v 2.887086868 2.499999762 7.5
vn -0.3052524626 -0.2990830541 0.9040853381
v 4.887086868 2.499999762 7.5
vn 0.5952792168 -0.6158291698 0.5161367059
v 2.887086868 7.5 7.5
vn -0.1985045671 0.2651002705 0.9435665011
v 4.887086868 7.5 7.5
vn 0.4025858641 0.8880512118 0.2220128328
v 4.887086868 7.500000477 -2.5
vn 0.7167487741 0.6237122416 -0.311856091
v 4.887086868 2.500000238 -2.5
vn 0.3995187879 -0.8020778298 -0.4439097941
v 2.887086868 7.500000477 -2.5
vn -0.3625732064 0.8154034019 -0.4512847662
v 2.887086868 2.500000238 -2.5
vn -0.7276260853 -0.5830907822 -0.3613383472
v 4.887086868 3.499999762 6.483318329
vn 0.4109865725 0.859944284 -0.3026315868
v 4.887086868 3.5 -1.5
vn 0.7759723067 0.5904532671 0.2218826711
v 4.887086868 6.5 -1.5
vn 0.442329824 -0.833101511 0.3320935965
v 4.887086868 6.5 6.483318329
vn 0.5642881393 -0.5254471302 -0.6367763877
v 2.887086868 6.5 5.568488121
vn -0.1561004221 -0.986223042 -0.05474295095
v 2.887086868 7.5 5.568488121
vn -0.3973832428 0.9085965753 -0.1286031753
v 2.887086868 6.5 -1.5
vn -0.7631607056 -0.5948502421 0.2524656653
v 2.887086868 3.5 -1.5
vn -0.4216241241 0.8423147202 0.3357662857
v 2.887086868 3.499999762 5.568488121
vn -0.5099189281 0.8568488955 -0.0761095956
v 2.887086868 2.5 5.568488121
vn -0.1174235716 -0.9895555377 -0.08361531049
v 5.960464478e-08 3.499999762 5.9992733
vn -0.3241737187 0.9457236528 0.02276315168
v 5.960464478e-08 2.499999762 5.9992733
vn -0.4533126652 -0.8682078719 0.2017986029
v 0.9312034249 3.499999762 6.483318329
vn -0.3171106577 0.3412192464 -0.884878695
v 0.9312034249 6.5 6.483318329
vn -0.6317282915 -0.6940248013 0.3453243375
v 5.960464478e-08 6.5 5.9992733
vn -0.7054570317 -0.3619712293 0.6093498468
v 5.960464478e-08 7.5 5.9992733
vn -0.4235462546 0.8976479769 0.1218057573
v 0.7904369235 7.5 4.478636265
vn -0.08629359305 0.8112243414 -0.5783324838
v 0.7904369235 6.5 4.478636265
vn -0.1042614505 -0.7077257037 -0.698751688
v 0.7904369235 3.499999762 4.478636265
vn -0.1212595999 0.5699654818 -0.8126718402
v 0.7904369235 2.5 4.478636265
vn -0.08629359305 -0.8112242222 -0.5783326626
# mm_gid 0
g mmGroup0
f 1//1 2//2 3//3 
f 3//3 2//2 4//4 
f 5//5 6//6 7//7 
f 7//7 6//6 8//8 
f 9//9 2//2 10//10 
f 10//10 2//2 6//6 
f 10//10 6//6 11//11 
f 11//11 6//6 5//5 
f 11//11 5//5 12//12 
f 12//12 5//5 4//4 
f 12//12 4//4 9//9 
f 9//9 4//4 2//2 
f 13//13 14//14 15//15 
f 15//15 14//14 7//7 
f 15//15 7//7 16//16 
f 16//16 7//7 8//8 
f 16//16 8//8 17//17 
f 17//17 8//8 18//18 
f 19//19 20//20 21//21 
f 21//21 20//20 1//1 
f 21//21 1//1 22//22 
f 22//22 1//1 3//3 
f 22//22 3//3 23//23 
f 23//23 3//3 24//24 
f 25//25 26//26 24//24 
f 24//24 26//26 23//23 
f 19//19 27//27 20//20 
f 20//20 27//27 28//28 
f 13//13 26//26 14//14 
f 14//14 26//26 25//25 
f 28//28 27//27 18//18 
f 18//18 27//27 17//17 
f 13//13 15//15 11//11 
f 23//23 26//26 22//22 
f 22//22 26//26 13//13 
f 22//22 13//13 12//12 
f 12//12 13//13 11//11 
f 17//17 27//27 19//19 
f 10//10 16//16 9//9 
f 9//9 16//16 17//17 
f 9//9 17//17 21//21 
f 21//21 17//17 19//19 
f 9//9 21//21 12//12 
f 12//12 21//21 22//22 
f 28//28 18//18 20//20 
f 20//20 18//18 1//1 
f 8//8 6//6 18//18 
f 18//18 6//6 2//2 
f 18//18 2//2 1//1 
f 14//14 25//25 24//24 
f 5//5 7//7 4//4 
f 4//4 7//7 14//14 
f 4//4 14//14 3//3 
f 3//3 14//14 24//24 
f 10//10 11//11 16//16 
f 16//16 11//11 15//15 
