v 6.633164883 19.31919289 3.999999046
vn 0.7074189186 -0.440238446 -0.5529453754
v 3.871152401 17.76817703 3.999999285
vn 0.6500164866 -0.7250098586 -0.2276824862
v 3.66460371 18.43741226 3.999999285
vn -0.5794363618 0.03047755733 -0.814447403
v 3.540371418 18.35723305 3.999999285
vn -0.3473338187 0.9375174642 -0.02050045505
v 6.207027912 20.07806396 3.999999046
vn -0.1044506505 0.9222593904 -0.3721931279
v 4.690013409 19.09912109 3.999999285
vn -0.1952126771 0.899066925 -0.3918809891
v 1.649187565 19.73798561 3.999999285
vn 0.1503117681 0.9539268017 -0.2596728802
v 1.649187565 19.4185524 3.999999285
vn -0.5410000086 -0.8383535743 -0.06694948673
v 4.319980621 10 6.000000477
vn -0.2501267791 0.9644707441 0.08504541963
v 5.680019379 10 6.000000477
vn 0.260679692 0.9490113258 0.1772671491
v 4.319980145 13.71375942 6
vn -0.6340748668 -0.1114944741 0.7651914954
v 5.680018902 13.71375942 6
vn 0.7631822824 0.2063051313 0.612365067
v 3.476973295 14.79422283 6
vn -0.6015640497 -0.7237172127 0.3381627202
v 4.213440418 15.42529964 6
vn 0.883096993 0.4547564387 0.1154825911
v -3.947353434e-06 10 10
vn -0.599145472 0.5310827494 0.5991458893
v -3.648166967e-06 6.123234528e-16 10.00000095
vn -0.6666663289 -0.3333334625 0.666666925
v 10.00000381 10.00000095 10
vn 0.6725411415 0.3088304102 0.6725416183
v 10.00000477 6.123233998e-16 10
vn 0.4082480967 -0.8164966702 0.4082483649
v 10.00000381 10 -4.786516001e-07
vn 0.5991454124 0.531082809 -0.5991459489
v 10.00000477 7.330817339e-24 1.197213351e-07
vn 0.6666663289 -0.3333334625 -0.666666925
v -3.947353434e-06 9.999999046 1.197213351e-07
vn -0.6725411415 0.308830291 -0.6725416183
v -3.648166967e-06 4.397059252e-23 7.180942703e-07
vn -0.4082479477 -0.8164967299 -0.4082483351
v 3.66460371 18.43741226 5.999999523
vn -0.5934634805 -0.3665736914 0.7165367007
v 1.649187565 17.13683891 6
vn -0.7536340952 0.5382871628 0.3772035837
v 1.649187565 17.13683891 3.999999523
vn -0.8428574204 -0.3981930912 -0.3619857132
v 2.799614429 17.87922096 3.999999285
vn -0.663846314 0.7346903086 -0.1397792995
v 2.799614429 17.87922096 2.438338518
vn -0.8732016087 0.37368083 -0.3128603399
v 3.540371418 18.35723305 2.438338518
vn 0.4340548515 0.8694235682 -0.2360064536
v 2.78362608 15.68286133 6
vn -0.8515601158 -0.5152138472 0.09695423394
v 4.319980145 13.71375942 3.999999762
vn -0.8501934409 -0.2790150344 -0.4464546442
v 3.476973295 14.79422283 8.237504959
vn 0.1559712738 -0.9045888186 0.3967266381
v 2.78362608 15.68286133 8.237504959
vn -0.9881283641 0.002572033554 0.1536089033
v 4.319980621 10 4
vn -0.1337939501 0.9741601348 -0.181964919
v 5.680018902 13.71375942 3.999999762
vn 0.8254407048 0.2891005278 -0.4848386645
v 5.680019379 10 4
vn 0.1281049252 0.987927258 -0.08711392432
v 2.746861935 17.13683891 3.999999523
vn 0.8670654893 0.01803699322 -0.497867614
v 2.746861935 17.13683891 5.999999523
vn 0.590167582 -0.6121923923 0.5262345076
v 3.48084116 16.28028107 5.999999523
vn 0.42679286 0.870398581 0.2454672158
v 3.48084116 16.28028107 8.237504959
vn 0.1483738273 0.823674798 0.5473070741
v 4.213440418 15.42529964 8.237504959
vn 0.9364383817 0.2914995849 0.1952207685
v 6.633164883 19.31919289 5.999999523
vn 0.5452849865 -0.7818593979 0.3022585213
v 3.103913784 17.33733749 3.999999523
vn 0.1587329358 -0.9697699547 -0.185337916
v 3.871152401 17.76817703 2.438338518
vn 0.7175491452 -0.5953610539 -0.3614808023
v 3.103913784 17.33733749 2.438338518
vn -0.09802936018 -0.9459520578 -0.3091358542
v 4.690013409 19.09912109 5.999999523
vn 0.03659860417 0.9307691455 0.3637709618
v 6.207027912 20.07806396 5.999999046
vn -0.1103396565 0.974257648 0.1965889037
v 1.649187565 19.73798561 5.999999523
vn -6.625607512e-07 0.9874842763 0.1577176154
v 1.649187565 19.4185524 5.999999523
vn -0.4462472498 -0.6915211678 0.5680333376
# mm_gid 0
g mmGroup0
f 1//1 2//2 3//3 
f 3//3 2//2 4//4 
f 5//5 1//1 6//6 
f 6//6 1//1 3//3 
f 6//6 3//3 7//7 
f 7//7 3//3 8//8 
f 9//9 10//10 11//11 
f 11//11 10//10 12//12 
f 11//11 12//12 13//13 
f 13//13 12//12 14//14 
f 15//15 16//16 17//17 
f 17//17 16//16 18//18 
f 19//19 20//20 21//21 
f 21//21 20//20 22//22 
f 23//23 3//3 24//24 
f 24//24 3//3 4//4 
f 25//25 24//24 26//26 
f 26//26 24//24 4//4 
f 26//26 4//4 27//27 
f 27//27 4//4 28//28 
f 29//29 24//24 25//25 
f 30//30 11//11 13//13 
f 31//31 32//32 13//13 
f 13//13 32//32 29//29 
f 13//13 29//29 30//30 
f 30//30 29//29 25//25 
f 33//33 9//9 30//30 
f 30//30 9//9 11//11 
f 12//12 10//10 34//34 
f 34//34 10//10 35//35 
f 14//14 12//12 34//34 
f 36//36 37//37 38//38 
f 39//39 40//40 38//38 
f 38//38 40//40 14//14 
f 38//38 14//14 36//36 
f 36//36 14//14 34//34 
f 37//37 36//36 41//41 
f 41//41 36//36 42//42 
f 1//1 41//41 2//2 
f 2//2 41//41 42//42 
f 2//2 42//42 43//43 
f 43//43 42//42 44//44 
f 45//45 46//46 6//6 
f 6//6 46//46 5//5 
f 47//47 45//45 7//7 
f 7//7 45//45 6//6 
f 48//48 47//47 8//8 
f 8//8 47//47 7//7 
f 3//3 23//23 8//8 
f 8//8 23//23 48//48 
f 15//15 21//21 16//16 
f 16//16 21//21 22//22 
f 19//19 17//17 20//20 
f 20//20 17//17 18//18 
f 33//33 21//21 9//9 
f 9//9 21//21 15//15 
f 9//9 15//15 10//10 
f 10//10 15//15 17//17 
f 10//10 17//17 35//35 
f 35//35 17//17 19//19 
f 35//35 19//19 33//33 
f 33//33 19//19 21//21 
f 20//20 18//18 22//22 
f 22//22 18//18 16//16 
f 47//47 48//48 45//45 
f 45//45 48//48 23//23 
f 29//29 38//38 24//24 
f 24//24 38//38 37//37 
f 24//24 37//37 23//23 
f 23//23 37//37 41//41 
f 23//23 41//41 45//45 
f 45//45 41//41 46//46 
f 26//26 42//42 25//25 
f 25//25 42//42 36//36 
f 25//25 36//36 30//30 
f 30//30 36//36 34//34 
f 30//30 34//34 33//33 
f 33//33 34//34 35//35 
f 39//39 38//38 32//32 
f 32//32 38//38 29//29 
f 13//13 14//14 31//31 
f 31//31 14//14 40//40 
f 40//40 39//39 31//31 
f 31//31 39//39 32//32 
f 28//28 43//43 27//27 
f 27//27 43//43 44//44 
f 44//44 42//42 27//27 
f 27//27 42//42 26//26 
f 4//4 2//2 28//28 
f 28//28 2//2 43//43 
f 41//41 1//1 46//46 
f 46//46 1//1 5//5 
