v 13.86579895 2.5 7.800829411
vn 0.4938091338 -0.7996274233 -0.3416848779
v 13.86579895 7.5 7.800829411
vn 0.7505377531 0.6076746583 -0.2596624792
v 13.86579895 -2.247132329e-07 15.60165405
vn 0.1179158613 -0.9817606807 -0.1491370797
v 8.46811676 -2.247132329e-07 15.60165405
vn -0.167145133 -0.9766993523 -0.1346139908
v 8.46811676 2.5 7.800829411
vn -0.6408793926 -0.6918526292 -0.3325861692
v 11.16695786 5 -3.061616999e-16
vn 0 -6.123234263e-17 -1
v 8.46811676 7.5 7.800829411
vn -0.857910037 0.4630726278 -0.2226074487
v 8.46811676 10 15.60165405
vn -0.07558598369 0.9847855568 -0.1564740986
v 13.86579895 10 15.60165405
vn 0.1197557673 0.9850347638 -0.123956047
v 8.46811676 10 65.05766296
vn -0.06387788057 0.9964981079 0.05395458266
v 20.59080887 10 15.60165405
vn 0.4649241865 0.8762752414 -0.1264404356
v 20.59080887 -2.247132329e-07 15.60165405
vn 0.9458884001 -0.3180554509 -0.06431078166
v 20.59080887 -2.247132329e-07 65.05766296
vn 0.5889497995 -0.7921386361 0.1601703465
v 13.86579895 -2.247132329e-07 65.05766296
vn 0.06387788057 -0.9964981079 0.05395459384
v 13.86579895 10 65.05766296
vn 0.06252729148 0.9754288793 0.2112552673
v 13.86579895 10 69.03859711
vn 0.42148453 0.7882842422 -0.4482842684
v 13.86579895 -2.247132329e-07 69.03859711
vn 0.1153531894 -0.8636300564 -0.4907512665
v 8.46811676 -2.247132329e-07 69.03859711
vn -0.42148453 -0.7882842422 -0.4482842684
v 2.956852541e-07 -2.247132329e-07 76.67838287
vn -0.3948970735 -0.7147580981 0.5772150159
v 2.956852541e-07 -2.247132329e-07 69.03859711
vn -0.3883239329 -0.3288372159 -0.8608545661
v 8.46811676 10 69.03859711
vn -0.1153531894 0.8636300564 -0.4907512665
v 8.46811676 -2.247132329e-07 65.05766296
vn -0.06252729148 -0.9754289389 0.2112552375
v 1.743107915 10 65.05766296
vn -0.5889498591 0.7921385765 0.1601703465
v 1.743107915 -2.247132329e-07 65.05766296
vn -0.9458884001 -0.3180553913 0.06431076676
v 1.743107915 -2.247132329e-07 15.60165405
vn -0.4649242461 -0.8762752414 -0.1264404356
v 1.743107915 10 15.60165405
vn -0.9458884001 0.3180553913 -0.06431076676
v 22.33391571 10 76.67838287
vn 0.3948970735 0.7147580981 0.5772150159
v 22.33391571 10 69.03859711
vn 0.3883239329 0.3288372159 -0.8608545661
v 22.33391571 -2.247132329e-07 69.03859711
vn 0.8202170134 -0.3472846746 -0.4545738399
v 22.33391571 -2.247132329e-07 76.67838287
vn 0.1496174634 -0.460852176 0.8747742176
v 2.956852541e-07 10 76.67838287
vn -0.1496174634 0.460852176 0.8747742176
v 2.956852541e-07 10 69.03859711
vn -0.8202170134 0.3472846746 -0.4545738399
v 20.59080887 10 65.05766296
vn 0.9458884001 0.3180554509 0.06431078166
# mm_gid 0
g mmGroup0
f 1//1 2//2 3//3 
f 3//3 4//4 1//1 
f 1//1 4//4 5//5 
f 1//1 5//5 6//6 
f 5//5 7//7 6//6 
f 6//6 7//7 2//2 
f 2//2 7//7 8//8 
f 2//2 8//8 9//9 
f 8//8 10//10 9//9 
f 9//9 10//10 11//11 
f 9//9 11//11 3//3 
f 3//3 11//11 12//12 
f 12//12 13//13 3//3 
f 3//3 13//13 14//14 
f 13//13 15//15 14//14 
f 15//15 16//16 14//14 
f 14//14 16//16 17//17 
f 18//18 14//14 17//17 
f 18//18 17//17 19//19 
f 19//19 20//20 18//18 
f 20//20 21//21 18//18 
f 21//21 10//10 18//18 
f 18//18 10//10 22//22 
f 10//10 23//23 22//22 
f 22//22 23//23 24//24 
f 24//24 25//25 22//22 
f 22//22 25//25 14//14 
f 4//4 14//14 25//25 
f 25//25 8//8 4//4 
f 26//26 8//8 25//25 
f 26//26 23//23 8//8 
f 24//24 26//26 25//25 
f 23//23 26//26 24//24 
f 16//16 10//10 21//21 
f 16//16 21//21 27//27 
f 27//27 28//28 16//16 
f 28//28 27//27 29//29 
f 17//17 28//28 29//29 
f 17//17 29//29 30//30 
f 29//29 27//27 30//30 
f 27//27 31//31 30//30 
f 30//30 31//31 19//19 
f 31//31 32//32 19//19 
f 21//21 32//32 31//31 
f 27//27 21//21 31//31 
f 32//32 21//21 20//20 
f 19//19 32//32 20//20 
f 19//19 17//17 30//30 
f 22//22 14//14 18//18 
f 16//16 28//28 17//17 
f 15//15 10//10 16//16 
f 33//33 15//15 13//13 
f 33//33 11//11 15//15 
f 12//12 33//33 13//13 
f 11//11 33//33 12//12 
f 15//15 11//11 10//10 
f 8//8 23//23 10//10 
f 8//8 7//7 4//4 
f 4//4 7//7 5//5 
f 3//3 14//14 4//4 
f 3//3 2//2 9//9 
f 1//1 6//6 2//2 
